<svg xmlns="http://www.w3.org/2000/svg" viewBox="0 0 120 120" width="100%" height="100%">
  <defs>
    <linearGradient id="neonGrad" x1="0%" y1="0%" x2="100%" y2="100%">
      <stop offset="0%" stop-color="#00F2FE" />
      <stop offset="100%" stop-color="#4FACFE" />
    </linearGradient>
  </defs>
  
  <rect x="0" y="0" width="120" height="120" rx="24" fill="#18181B" />

  <rect x="15" y="15" width="90" height="90" rx="12" fill="none" stroke="#27272A" stroke-width="3" />

  <path d="M 35 7 v 8 M 60 7 v 8 M 85 7 v 8
           M 35 105 v 8 M 60 105 v 8 M 85 105 v 8
           M 7 35 h 8 M 7 60 h 8 M 7 85 h 8
           M 105 35 h 8 M 105 60 h 8 M 105 85 h 8"
        stroke="#3F3F46" stroke-width="3" stroke-linecap="round" />

  <g fill="none" stroke="url(#neonGrad)" stroke-width="4" stroke-linejoin="round">
    <path d="M 36 32 H 64 L 84 52 V 88 H 36 Z" />
    <path d="M 64 32 V 52 H 84" />
  </g>

  <g fill="none" stroke="url(#neonGrad)" stroke-width="4" stroke-linecap="round" stroke-linejoin="round">
    <path d="M 48 64 H 60 L 64 60 H 72" />
    <path d="M 48 76 H 52 L 56 72 H 64" />
  </g>

  <circle cx="48" cy="64" r="3" fill="#18181B" stroke="url(#neonGrad)" stroke-width="2" />
  <circle cx="72" cy="60" r="3" fill="#18181B" stroke="url(#neonGrad)" stroke-width="2" />
  <circle cx="48" cy="76" r="3" fill="#18181B" stroke="url(#neonGrad)" stroke-width="2" />
  <circle cx="64" cy="72" r="3" fill="#18181B" stroke="url(#neonGrad)" stroke-width="2" />

</svg>